<?xml version="1.0" encoding="UTF-8" standalone="no"?>
<svg width="15px" height="16px" viewBox="0 0 15 16" version="1.1" xmlns="http://www.w3.org/2000/svg" xmlns:xlink="http://www.w3.org/1999/xlink" xmlns:sketch="http://www.bohemiancoding.com/sketch/ns">
    <!-- Generator: Sketch 3.4.2 (15857) - http://www.bohemiancoding.com/sketch -->
    <title>Imported Layers</title>
    <desc>Created with Sketch.</desc>
    <defs></defs>
    <g id="Page-1" stroke="none" stroke-width="1" fill="none" fill-rule="evenodd" sketch:type="MSPage">
        <g id="公司信息-copy" sketch:type="MSArtboardGroup" transform="translate(-1265.000000, -19.000000)" fill="#FAF9FA">
            <path d="M1279.81296,32.1578286 C1279.81296,31.7546286 1279.48285,31.4268571 1279.07508,31.4268571 C1278.05623,31.4268571 1277.23031,30.6088 1277.23031,29.5994286 L1277.23031,25.2133714 C1277.23031,22.9269714 1275.59081,21.0180571 1273.40658,20.5643429 C1273.47442,20.4224 1273.51365,20.264 1273.51365,20.0963429 C1273.51377,19.4909714 1273.01796,19 1272.40654,19 C1271.79512,19 1271.29954,19.4909714 1271.29954,20.0969143 C1271.29954,20.2645714 1271.33865,20.4229714 1271.4065,20.5649143 C1269.2225,21.0186286 1267.583,22.9275429 1267.583,25.2139429 L1267.583,29.5998857 C1267.583,30.6092571 1266.75696,31.4273143 1265.738,31.4273143 C1265.33035,31.4273143 1265,31.7546286 1265,32.1582857 C1265,32.5618286 1265.33023,32.8892571 1265.738,32.8892571 L1270.93042,32.8892571 C1270.93042,33.9996571 1271.59146,34.8996571 1272.40654,34.8996571 C1273.22162,34.8996571 1273.88254,33.9996571 1273.88254,32.8892571 L1279.07508,32.8892571 C1279.48285,32.8886857 1279.81296,32.5616 1279.81296,32.1578286" id="Imported-Layers" sketch:type="MSShapeGroup"></path>
        </g>
    </g>
</svg>