<?xml version="1.0" encoding="UTF-8" standalone="no"?>
<svg width="13px" height="14px" viewBox="0 0 13 14" version="1.1" xmlns="http://www.w3.org/2000/svg" xmlns:xlink="http://www.w3.org/1999/xlink">
    <!-- Generator: Sketch 3.6 (26304) - http://www.bohemiancoding.com/sketch -->
    <title>图形</title>
    <desc>Created with Sketch.</desc>
    <defs></defs>
    <g id="Page-1" stroke="none" stroke-width="1" fill="none" fill-rule="evenodd">
        <g id="公司信息-copy" transform="translate(-23.000000, -416.000000)" fill="#AEB9C2">
            <g id="图形" transform="translate(23.000000, 416.000000)">
                <path d="M7.81183212,9.29618052 C7.25696865,9.29618052 6.82478856,9.25422585 6.70210518,9.24024098 C6.4177028,9.20667725 6.21137167,8.95215231 6.24483076,8.6668606 C6.27550161,8.38156891 6.52923314,8.17738956 6.81642379,8.20815631 C8.10738754,8.35080216 10.0870512,8.22773515 10.4327953,7.50611498 C10.5554786,7.24879306 10.8649753,7.13691395 11.1242834,7.26277793 C11.3835914,7.38584494 11.4923335,7.69910641 11.3668619,7.95642833 C10.8175749,9.09479815 9.01914812,9.29618052 7.81183212,9.29618052 L7.81183212,9.29618052 Z" id="Shape"></path>
                <path d="M12.4654358,8.77873969 C12.1782452,8.77873969 11.9468197,8.54659057 11.9468197,8.25850189 L11.9468197,6.46563937 L11.2525433,6.21670837 C11.0462122,6.14398696 10.9067992,5.94540156 10.9067992,5.72723733 C10.9067992,3.14562719 8.81281697,1.04509715 6.23925423,1.04509715 C3.6656915,1.04509715 1.57170926,3.14562719 1.57170926,5.72723733 C1.57170926,5.89505598 1.49084976,6.05168672 1.35422507,6.14958093 L1.05309314,6.3649482 L1.05309314,8.25570493 C1.05309314,8.54379359 0.821667675,8.77594273 0.534477024,8.77594273 C0.247286373,8.77594273 0.0158609077,8.54379361 0.0158609077,8.25570493 L0.0158609077,6.09643837 C0.0158609077,5.92861972 0.0967204052,5.77198899 0.233345089,5.67409478 L0.540053537,5.45313356 C0.682254734,2.42400702 3.18332274,0.00182460163 6.23925422,0.00182460163 C9.26172663,0.00462156098 11.7432768,2.37366143 11.9356667,5.35803633 L12.6410961,5.60976429 C12.8474273,5.68248571 12.9868402,5.88107111 12.9868402,6.09923533 L12.9868402,8.25850189 C12.9840519,8.54659057 12.7526265,8.77873969 12.4654358,8.77873969 L12.4654358,8.77873969 Z" id="Shape"></path>
                <path d="M8.31371868,11.1170128 L8.31371868,10.9603821 C8.76820484,10.6051659 9.13067846,10.2611377 9.34537438,9.77726062 C8.87415867,9.85277901 8.34717778,9.82480924 7.92336248,9.82480924 C7.40474636,9.82480924 6.96141325,9.83879413 6.69095215,9.80802737 C6.12214738,9.74369688 5.71227336,9.17870745 5.77361506,8.60812407 C5.83774502,8.03754067 6.35357286,7.62079104 6.91958936,7.6879185 C8.07392845,7.81098551 9.34816264,7.6767306 9.85841399,7.46136333 C9.88072006,6.98587717 9.87514354,6.48521821 9.87514354,6.10482928 C9.87514354,3.87843527 8.52562637,2.55826193 6.36193765,2.51071332 L6.04686443,2.51071332 C3.88317571,2.55546496 2.58663545,3.89242016 2.58663545,6.12161115 C2.58663545,7.49772403 2.60894152,9.74369689 4.16478985,10.963179 L4.16478985,11.1198098 C2.09032542,11.4442592 0.50101799,12.3001342 0.50101799,13.4301131 C0.50101799,13.7182018 0.740808242,13.9867116 1.02799888,13.9867116 L11.2079312,13.9867116 C11.4951218,13.9867116 11.8548072,13.7182018 11.8548072,13.4301131 C11.8575954,12.2973373 10.3909714,11.4442592 8.31371868,11.1170128 L8.31371868,11.1170128 Z" id="Shape"></path>
            </g>
        </g>
    </g>
</svg>