<?xml version="1.0" encoding="UTF-8" standalone="no"?>
<svg width="17px" height="17px" viewBox="0 0 17 17" version="1.1" xmlns="http://www.w3.org/2000/svg" xmlns:xlink="http://www.w3.org/1999/xlink" xmlns:sketch="http://www.bohemiancoding.com/sketch/ns">
    <!-- Generator: Sketch 3.4.2 (15857) - http://www.bohemiancoding.com/sketch -->
    <title>Imported Layers</title>
    <desc>Created with Sketch.</desc>
    <defs></defs>
    <g id="Page-1" stroke="none" stroke-width="1" fill="none" fill-rule="evenodd" sketch:type="MSPage">
        <g id="公司信息-copy" sketch:type="MSArtboardGroup" transform="translate(-1214.000000, -18.000000)" fill="#FAF9FA">
            <path d="M1228.57306,34.3851064 L1224.83457,30.7775644 C1223.68671,31.5524199 1222.35031,31.9609077 1220.95767,31.9609077 C1217.12117,31.9609077 1214,28.8296971 1214,24.9800565 C1214,21.1312106 1217.12117,18 1220.95767,18 C1224.79417,18 1227.91534,21.1312106 1227.91534,24.9800565 C1227.91534,26.3771804 1227.50895,27.717879 1226.73658,28.8694333 L1230.39817,32.5634429 C1230.91704,33.0847816 1231.26191,33.8637678 1230.74303,34.3851064 C1230.4729,34.6561071 1230.09771,35 1229.74202,35 C1229.38634,35 1228.82418,34.6370337 1228.57306,34.3851064 Z M1220.95767,20.0400552 C1218.24209,20.0400552 1216.03272,22.2565391 1216.03272,24.9800565 C1216.03272,27.7043687 1218.24209,29.9208525 1220.95767,29.9208525 C1223.67324,29.9208525 1225.88262,27.7043687 1225.88262,24.9800565 C1225.88262,22.2565391 1223.67324,20.0400552 1220.95767,20.0400552 L1220.95767,20.0400552 Z" id="Imported-Layers" sketch:type="MSShapeGroup"></path>
        </g>
    </g>
</svg>