<?xml version="1.0" encoding="UTF-8" standalone="no"?>
<svg width="170px" height="46px" viewBox="0 0 170 46" version="1.1" xmlns="http://www.w3.org/2000/svg" xmlns:xlink="http://www.w3.org/1999/xlink">
    <!-- Generator: Sketch 3.8.3 (29802) - http://www.bohemiancoding.com/sketch -->
    <title>Page 1</title>
    <desc>Created with Sketch.</desc>
    <defs>
        <polygon id="path-1" points="0 45.2269698 169.525019 45.2269698 169.525019 0.000192334334 0 0.000192334334"></polygon>
    </defs>
    <g id="Page-1" stroke="none" stroke-width="1" fill="none" fill-rule="evenodd">
        <g id="登陆-4" transform="translate(-50.000000, -51.000000)">
            <g id="Page-1" transform="translate(50.000000, 51.000000)">
                <path d="M72.5834419,20.8891114 L72.5834419,26.8937893 C72.5834419,30.9956396 73.8383858,31.6675275 77.4077491,31.6675275 C80.9771124,31.6675275 82.2320562,30.9956396 82.2320562,26.8937893 L82.2320562,20.8891114 C82.2320562,16.4070804 80.9771124,15.6928789 77.4077491,15.6928789 C73.8383858,15.6928789 72.5834419,16.4070804 72.5834419,20.8891114 L72.5834419,20.8891114 Z M70.9776742,44.2731198 C74.6317191,41.7362299 78.5366255,38.2261283 80.1748652,35.0128627 C78.5786479,35.4353571 77.5338165,35.5199842 76.2317566,35.5199842 C71.36097,35.5199842 68.2105581,32.8984673 68.2105581,26.8937893 L68.2105581,20.8891114 C68.2105581,14.1657442 70.7732921,11.4596002 77.4077491,11.4596002 C84.0434794,11.4596002 86.6049401,14.1657442 86.6049401,20.8891114 L86.6049401,26.8937893 C86.6049401,34.7166678 82.279809,40.8905999 76.8620936,44.5693146 L71.0617191,44.5693146 L70.9776742,44.2731198 L70.9776742,44.2731198 Z" id="Fill-1" fill="#FFFFFF"></path>
                <path d="M93.381573,20.8891114 L93.381573,26.8937893 C93.381573,30.9956396 94.6365169,31.6675275 98.2058801,31.6675275 C101.775243,31.6675275 103.030187,30.9956396 103.030187,26.8937893 L103.030187,20.8891114 C103.030187,16.4070804 101.775243,15.6928789 98.2058801,15.6928789 C94.6365169,15.6928789 93.381573,16.4070804 93.381573,20.8891114 L93.381573,20.8891114 Z M91.3931461,44.2731198 C95.0465543,41.7362299 98.9520974,38.2261283 100.590337,35.0128627 C98.9941199,35.4353571 98.3319476,35.5199842 97.0298876,35.5199842 C92.1591011,35.5199842 89.0086891,32.8984673 89.0086891,26.8937893 L89.0086891,20.8891114 C89.0086891,14.1657442 91.5714232,11.4596002 98.2058801,11.4596002 C104.84161,11.4596002 107.403071,14.1657442 107.403071,20.8891114 L107.403071,26.8937893 C107.403071,34.7166678 103.07794,40.8905999 97.6602247,44.5693146 L91.477191,44.5693146 L91.3931461,44.2731198 Z" id="Fill-3" fill="#FFFFFF"></path>
                <path d="M111.330772,44.6652895 L116.939498,28.6669196 L110.539985,28.6669196 L110.539985,25.0234662 L138.61609,25.0234662 L138.61609,28.6669196 L121.746614,28.6669196 L117.459049,41.0583796 L132.431146,41.0583796 C132.676277,41.0583796 132.915041,40.9224633 133.103506,40.6756343 C133.300247,40.4730421 133.369011,40.1960807 133.279873,39.9159136 L131.19403,33.1008671 L135.311596,33.1008671 L137.515865,41.7142397 C137.665491,42.432929 137.505041,43.1214859 137.036427,43.749778 C136.555715,44.3460145 135.912644,44.6652895 135.183618,44.6652895 L111.330772,44.6652895 Z" id="Fill-5" fill="#FFFFFF"></path>
                <mask id="mask-2" fill="white">
                    <use xlink:href="#path-1"></use>
                </mask>
                <g id="Clip-8"></g>
                <polygon id="Fill-7" fill="#FFFFFF" mask="url(#mask-2)" points="111.75176 16.4325967 137.404569 16.4325967 137.404569 12.7891433 111.75176 12.7891433"></polygon>
                <polygon id="Fill-9" fill="#FFFFFF" mask="url(#mask-2)" points="142.739959 16.4324044 142.739322 12.788951 153.123966 12.788951 153.123966 10.2039775 159.026213 10.2039775 159.026213 12.788951 169.382206 12.788951 169.382206 16.4324044"></polygon>
                <path d="M160.233659,44.5738024 L160.233659,41.2066694 L164.421262,41.2066694 C165.012124,41.2066694 165.5113,40.621973 165.5113,39.9308516 L165.5113,25.0428919 L162.900813,25.0428919 L164.77527,30.2282256 L160.729652,30.2282256 L158.748865,25.0428919 L153.359801,25.0428919 L151.347816,30.3141349 L147.300925,30.3141349 L149.205944,25.0428919 L146.369427,25.0428919 L146.369427,44.5738024 L142.398303,44.5738024 L142.398303,21.2603167 L148.827742,21.2603167 L147.110551,18.0791068 L151.135794,18.0791068 L152.885457,21.2603167 L159.358191,21.2603167 L161.141599,18.0791068 L165.168116,18.0791068 L163.449652,21.2603167 L169.525082,21.2603167 L169.525082,41.2951432 C169.525082,43.0723124 168.358004,44.5738024 166.976356,44.5738024 L160.233659,44.5738024 Z" id="Fill-10" fill="#FFFFFF" mask="url(#mask-2)"></path>
                <path d="M154.254116,36.9704415 L156.345689,36.9704415 C157.184865,36.9704415 157.868049,36.2825257 157.868049,35.4368958 L157.868049,32.3986544 L154.254116,32.3986544 L154.254116,36.9704415 Z M150.594978,40.0106062 L150.594978,29.3578486 L161.527187,29.3578486 L161.527187,37.4051171 C161.527187,38.8418546 160.366476,40.0106062 158.939622,40.0106062 L150.594978,40.0106062 Z" id="Fill-11" fill="#FFFFFF" mask="url(#mask-2)"></path>
                <path d="M31.7916554,14.931876 C27.6683596,14.931876 25.7767116,16.2019237 25.7767116,21.3789229 L25.7767116,28.3151401 C25.7767116,33.0529758 27.6683596,34.2742989 31.7916554,34.2742989 C35.9149513,34.2742989 37.8065993,33.0529758 37.8065993,28.3151401 L37.8065993,21.3789229 C37.8065993,16.2019237 35.9149513,14.931876 31.7916554,14.931876" id="Fill-12" fill="#FFFFFF" mask="url(#mask-2)"></path>
                <path d="M48.9292472,11.8210605 C47.5399588,5.08807658 42.2215693,0.000192334334 31.9852772,0.000192334334 C21.7871873,0.000192334334 15.7314944,5.08422989 14.3339288,11.8075971 C4.51022097,12.2198337 -0.000191011236,20.4716177 -0.000191011236,29.4337566 C-0.000191011236,38.3048572 6.93542697,44.6692003 16.6196966,45.216712 L23.0714195,45.2269698 L28.945015,45.1974786 C31.7006704,42.8381774 34.1577116,40.1890925 35.4304831,37.693234 C33.586588,38.1817632 31.9375243,38.2798537 30.4329925,38.2798537 C24.8064382,38.2798537 21.1683109,35.251229 21.1683109,28.3150119 L21.1683109,21.3794358 C21.1683109,13.6129754 24.1277116,10.4869013 31.7917191,10.4869013 C39.4563633,10.4869013 42.4151273,13.6129754 42.4151273,21.3794358 L42.4151273,28.3150119 C42.4151273,35.1717309 39.5378614,40.9295797 35.4164757,45.1654228 L37.2380861,45.1564472 L48.1212697,45.1231093 C57.2783483,44.1063018 63.5836292,37.9650665 63.5836292,29.4337566 C63.5836292,20.574196 58.593779,12.3871646 48.9292472,11.8210605" id="Fill-13" fill="#FFFFFF" mask="url(#mask-2)"></path>
            </g>
        </g>
    </g>
</svg>